<?xml version="1.0" standalone="no"?>
<!DOCTYPE svg PUBLIC "-//W3C//DTD SVG 20010904//EN"
 "http://www.w3.org/TR/2001/REC-SVG-20010904/DTD/svg10.dtd">
<svg version="1.0" xmlns="http://www.w3.org/2000/svg"
 width="700.000000pt" height="700.000000pt" viewBox="0 0 700.000000 700.000000"
 preserveAspectRatio="xMidYMid meet">
<metadata>
Created by potrace 1.14, written by Peter Selinger 2001-2017
</metadata>
<g transform="translate(0.000000,700.000000) scale(0.100000,-0.100000)"
fill="#000000" stroke="none">
<path d="M3613 6808 c-92 -15 -164 -71 -209 -160 -22 -44 -27 -48 -62 -49 -39
-1 -44 -1 -132 -14 -62 -8 -75 -11 -145 -25 -27 -6 -61 -12 -74 -15 -193 -37
-535 -183 -745 -319 -394 -255 -731 -662 -885 -1071 -13 -33 -27 -69 -32 -80
-27 -64 -70 -234 -95 -380 -7 -39 -11 -42 -64 -50 -25 -3 -67 -10 -95 -15 -27
-5 -63 -12 -80 -15 -16 -2 -42 -7 -56 -10 -20 -5 -30 -1 -41 17 -48 71 -105
108 -168 108 -136 0 -225 -82 -229 -210 -1 -21 -14 -32 -76 -63 -82 -42 -135
-94 -135 -132 0 -48 76 -112 180 -153 71 -27 207 -70 295 -91 l90 -22 90 -190
c50 -104 91 -195 93 -203 2 -8 -20 -28 -48 -45 l-51 -32 19 -32 c11 -18 43
-77 72 -132 29 -55 67 -127 85 -160 74 -138 166 -310 235 -440 52 -97 98 -182
107 -197 2 -4 22 4 43 17 22 14 43 25 48 25 5 0 18 -19 30 -42 12 -24 46 -86
76 -138 l53 -95 -22 -35 c-77 -126 -82 -292 -13 -429 22 -43 111 -141 129
-141 5 0 9 -248 9 -615 l0 -615 -188 0 -188 0 0 -140 0 -140 2080 0 2081 0 0
140 0 140 -192 0 -192 0 0 364 0 364 35 39 c85 92 166 225 203 338 53 161 59
339 16 495 -41 150 -41 142 -3 207 18 32 47 84 63 116 30 57 34 60 76 43 16
-7 10 -20 378 724 166 334 180 366 164 377 -61 42 -63 24 22 199 42 87 88 182
102 210 23 47 29 52 65 58 63 10 246 74 310 108 76 40 117 88 112 130 -5 40
-30 67 -104 109 -50 29 -60 40 -69 74 -26 100 -97 159 -195 162 -67 2 -103
-12 -153 -59 l-31 -30 -119 22 c-65 12 -136 25 -158 29 l-40 7 -12 64 c-56
291 -131 496 -282 763 -12 21 -26 44 -31 50 -6 7 -28 39 -49 72 -158 240 -433
500 -702 663 -115 70 -318 172 -342 172 -7 0 -17 4 -23 9 -18 18 -258 91 -384
118 l-128 26 -21 52 c-51 122 -175 195 -298 173z m2485 -2822 c-16 -34 -53
-107 -81 -163 l-51 -101 -47 23 -46 24 -18 -39 -17 -38 -30 56 c-38 72 -102
150 -151 188 l-38 29 33 7 c18 4 59 10 90 13 87 11 121 16 267 40 46 8 85 16
87 18 2 2 10 4 18 4 11 0 7 -16 -16 -61z m-5058 36 c7 1 112 -14 135 -18 27
-5 83 -13 135 -19 25 -3 54 -7 65 -9 11 -2 49 -7 85 -11 36 -4 79 -9 95 -11
17 -2 59 -6 95 -10 36 -4 74 -8 85 -9 11 -1 32 -3 48 -4 l27 -1 0 -724 c0
-422 -4 -727 -9 -730 -5 -3 -41 51 -81 121 l-72 128 39 32 c21 18 41 33 46 33
14 0 6 32 -22 83 -15 29 -47 88 -71 132 -23 44 -57 107 -75 140 -18 33 -54
101 -80 150 -26 50 -55 104 -65 120 -9 17 -43 80 -75 140 -78 148 -105 195
-115 195 -4 0 -21 -7 -36 -15 -16 -8 -34 -15 -39 -15 -6 0 -44 68 -85 151 -92
185 -87 171 -58 160 12 -5 25 -9 28 -9z m291 -619 c67 -126 132 -246 144 -268
12 -22 43 -79 68 -127 26 -47 56 -103 67 -123 12 -21 20 -39 18 -41 -10 -9
-124 -84 -129 -84 -4 0 -9 8 -13 18 -3 9 -10 24 -16 32 -9 13 -118 218 -263
490 -28 52 -70 130 -94 174 -23 43 -40 82 -37 87 5 9 113 68 125 69 4 0 62
-102 130 -227z m4101 -530 c-4 -10 -26 -55 -49 -100 l-41 -82 50 -33 c28 -18
55 -36 60 -39 5 -3 -15 -47 -44 -98 l-53 -92 -30 38 c-16 20 -49 59 -72 85
l-42 47 1 134 0 133 37 0 c45 1 143 13 150 19 2 3 12 5 22 5 14 0 16 -5 11
-17z"/>
</g>
</svg>
