<?xml version="1.0" encoding="UTF-8" standalone="no"?>
<!DOCTYPE svg PUBLIC "-//W3C//DTD SVG 1.1//EN" "http://www.w3.org/Graphics/SVG/1.1/DTD/svg11.dtd">
<svg width="100%" height="100%" viewBox="0 0 150 150" version="1.1" xmlns="http://www.w3.org/2000/svg" xmlns:xlink="http://www.w3.org/1999/xlink" xml:space="preserve" xmlns:serif="http://www.serif.com/" style="fill-rule:evenodd;clip-rule:evenodd;stroke-linejoin:round;stroke-miterlimit:2;">
    <g>
        <g transform="matrix(1,0,0,1.09827,1.21629,3.38828)">
            <ellipse cx="74.284" cy="49.113" rx="69.284" ry="9.126" style="fill:rgb(0,0,105);"/>
        </g>
        <path d="M30.725,144L119.889,144L119.889,137.991L111.689,137.991L111.689,58.239L38.767,58.239L38.767,137.991L30.725,137.991L30.725,144Z" style="fill:rgb(0,0,105);"/>
        <g transform="matrix(1.04352,0,0,1.00761,-3.37621,2.044)">
            <path d="M76.214,6.25C100.731,6.25 121.001,24.574 124.065,48.261C124.33,50.304 28.099,50.304 28.363,48.261C31.427,24.574 51.698,6.25 76.214,6.25Z" style="fill:rgb(0,0,105);"/>
        </g>
        <g transform="matrix(1.31588,0,0,1.40635,-26.4125,-1.65004)">
            <circle cx="79.587" cy="8.587" r="4.587" style="fill:rgb(0,0,105);"/>
        </g>
        <g transform="matrix(0.979866,0,0,1.01828,58.7023,45.6032)">
            <circle cx="79.587" cy="8.587" r="4.587" style="fill:rgb(0,0,105);"/>
        </g>
        <g transform="matrix(0.84668,0,0,0.671744,-51.7675,45.7946)">
            <path d="M79.542,4.168C81.528,4.087 83.408,6.144 84.175,8.587C85.374,12.41 85.602,11.643 83.599,13.074C80.875,15.02 74.743,16.284 74.261,15.779C73.476,14.955 73.684,9.766 74.196,8.333C74.739,6.814 75.751,4.322 79.542,4.168Z" style="fill:rgb(0,0,105);"/>
        </g>
        <path d="M20.237,61.683L17.606,61.626L22.411,71.579L20.174,73.069L31.268,93.85L33.242,92.666L40.424,105.659L40.262,100.39L35.299,91.562L37.433,89.876L26.538,69.549L24.629,70.403L20.237,61.683ZM34.946,89.015L25.821,72.119L22.854,73.699L32.103,90.928L34.946,89.015Z" style="fill:rgb(0,0,105);"/>
        <g transform="matrix(1.17218,0,0,1.05489,-7.00692,-5.89119)">
            <ellipse cx="42.026" cy="104.43" rx="6.411" ry="8.007" style="fill:rgb(0,0,105);"/>
        </g>
        <path d="M130.402,71.531L136.159,59.613L132.393,61.173L127.881,70.253L125.838,69.288L114.466,92.365L117.009,93.983L113.31,100.444L114.267,104.375L119.154,95.439L120.325,96.087L132.039,72.433L130.402,71.531Z" style="fill:rgb(0,0,105);"/>
    </g>
    <g>
        <path d="M98.613,52.948L71.003,52.948L71.003,62.272L73.214,62.272L73.214,137.991L85.914,137.991L85.914,141.028L103.112,141.028L103.112,137.991L98.613,137.991L98.613,52.948Z" style="fill:white;"/>
        <g transform="matrix(0.993965,-6.48481e-18,0,1.06809,0.459293,-5.40462)">
            <path d="M88.625,52.614C117.175,52.684 124.76,53.618 124.76,54.948C124.76,56.277 117.233,56.611 88.743,56.732C62.989,56.841 52.627,56.724 52.627,55.395C52.627,54.065 60.59,52.545 88.625,52.614Z" style="fill:white;"/>
        </g>
        <g transform="matrix(1,0,0,0.972574,-8.66973,-1.41809)">
            <path d="M94.481,29.394C103.969,29.155 109.926,32.963 113.016,36.587C114.236,38.019 116.408,41.537 115.395,43.997C113.863,47.715 100.585,46.999 94.481,47.011C88.563,47.023 79.328,46.656 76.252,45.025C74.124,43.897 75.885,38.34 77.643,36.451C80.759,33.103 85.723,29.614 94.481,29.394Z" style="fill:white;"/>
        </g>
    </g>
    <g>
        <g transform="matrix(1.48396,0,0,1.48396,54.7199,-55.9072)">
            <ellipse cx="29.384" cy="110.684" rx="13.092" ry="12.941" style="fill:rgb(0,0,105);"/>
        </g>
        <g transform="matrix(2.42954,0,0,0.983162,-96.4692,29.7041)">
            <path d="M74.912,65.666C81.644,61.05 85.678,81.206 85.678,88.192C85.678,95.177 81.172,101.348 74.186,101.348C67.2,101.348 62.051,90.299 62.051,83.313C62.051,76.328 68.602,69.993 74.912,65.666Z" style="fill:rgb(0,0,105);"/>
        </g>
        <g transform="matrix(1,0,0,1,-0.819543,-0.70331)">
            <path d="M74.033,61.901C81.908,62.166 87.597,67.8 87.808,75.703C88.024,83.75 76.246,95.534 68.052,96.261C60.035,96.972 59.449,84.271 59.449,76.222C59.449,68.173 65.989,61.63 74.033,61.901Z" style="fill:rgb(0,0,105);"/>
        </g>
        <g transform="matrix(0.916262,0,0,0.918091,11.8391,10.3287)">
            <path d="M110.342,57.001C117.705,56.862 124.507,62.966 124.462,71.036C124.417,78.922 117.83,85.238 109.744,85.238C101.658,85.238 95.902,78.527 95.902,70.441C95.902,62.355 102.258,57.154 110.342,57.001Z" style="fill:rgb(0,0,105);"/>
        </g>
        <g transform="matrix(1.39813,0,0,1.39813,-5.83837,-8.15273)">
            <circle cx="74.708" cy="83.313" r="12.657" style="fill:white;"/>
        </g>
        <g transform="matrix(0.818267,0,0,0.818267,33.926,40.1576)">
            <circle cx="74.708" cy="83.313" r="12.657" style="fill:rgb(0,0,105);"/>
        </g>
    </g>
    <g id="Auge-L" serif:id="Auge L">
        <g transform="matrix(0.967725,0,0,0.967725,0.917014,-5.70934)">
            <circle cx="74.708" cy="83.313" r="12.657" style="fill:white;"/>
        </g>
        <g transform="matrix(0.620386,-0.289291,0.289291,0.620386,3.63391,43.9743)">
            <circle cx="74.708" cy="83.313" r="12.657" style="fill:rgb(0,0,105);"/>
        </g>
        <g transform="matrix(0.444558,-0.207301,0.207301,0.444558,26.1752,51.4272)">
            <circle cx="74.708" cy="83.313" r="12.657" style="fill:white;"/>
        </g>
    </g>
    <g id="Auge-R" serif:id="Auge R">
        <g transform="matrix(0.92385,0,0,0.92385,43.8844,-1.4986)">
            <circle cx="74.708" cy="83.313" r="12.657" style="fill:white;"/>
        </g>
        <g transform="matrix(0.615609,-0.287063,0.287063,0.615609,44.0605,45.093)">
            <circle cx="74.708" cy="83.313" r="12.657" style="fill:rgb(0,0,105);"/>
        </g>
        <g transform="matrix(0.447476,-0.208662,0.208662,0.447476,65.8259,52.224)">
            <circle cx="74.708" cy="83.313" r="12.657" style="fill:white;"/>
        </g>
    </g>
</svg>
